<?xml version="1.0" standalone="no"?>
<!DOCTYPE svg PUBLIC "-//W3C//DTD SVG 20010904//EN"
 "http://www.w3.org/TR/2001/REC-SVG-20010904/DTD/svg10.dtd">
<svg version="1.0" xmlns="http://www.w3.org/2000/svg"
 width="1536.000000pt" height="1536.000000pt" viewBox="0 0 1536.000000 1536.000000"
 preserveAspectRatio="xMidYMid meet">
<metadata>
Created by potrace 1.10, written by Peter Selinger 2001-2011
</metadata>
<g transform="translate(0.000000,1536.000000) scale(0.100000,-0.100000)"
fill="#000000" stroke="none">
<path d="M4148 14638 c-136 -16 -255 -103 -319 -234 l-34 -69 -5 -330 -5 -330
-565 -6 c-356 -3 -598 -10 -655 -17 -396 -54 -725 -187 -1034 -417 -299 -223
-534 -530 -686 -895 -82 -196 -128 -406 -145 -665 -13 -213 -14 -6765 0 -6990
19 -313 74 -526 208 -805 230 -480 662 -872 1162 -1052 195 -71 313 -99 520
-123 121 -14 354 -16 2180 -13 2248 4 2086 -1 2187 65 236 153 273 453 81 651
-52 54 -97 83 -162 105 -46 16 -211 17 -2045 17 -1881 1 -2108 4 -2251 29
-252 44 -492 170 -671 353 -175 177 -278 365 -341 620 l-23 93 0 2405 0 2405
5195 0 5195 0 6 -455 c3 -270 10 -469 16 -490 17 -58 35 -93 72 -140 86 -110
205 -170 336 -170 209 0 385 155 415 365 13 96 13 2906 0 3125 -6 91 -18 203
-26 250 -69 378 -220 701 -467 995 -193 231 -433 414 -720 550 -61 29 -141 62
-177 73 -36 12 -78 25 -95 31 -94 31 -239 63 -375 82 -55 8 -280 13 -640 16
-305 2 -563 5 -572 7 -15 3 -17 34 -20 333 l-3 328 -32 65 c-70 139 -183 222
-323 238 -147 17 -269 -26 -363 -128 -110 -118 -117 -150 -117 -530 0 -169 -4
-301 -9 -304 -5 -4 -951 -6 -2101 -6 -1150 0 -2096 2 -2101 6 -5 3 -9 137 -9
307 -1 375 -9 410 -116 526 -95 103 -216 146 -366 129z m-370 -1831 c7 -8 12
-128 14 -337 l3 -325 32 -66 c43 -86 117 -159 211 -204 73 -36 76 -37 181 -33
93 3 113 7 166 33 109 53 202 163 232 275 8 30 12 142 13 338 0 182 4 301 10
313 11 19 45 19 2100 19 2055 0 2089 0 2100 -19 6 -12 10 -131 10 -313 1 -196
5 -308 13 -338 30 -112 123 -222 232 -275 79 -39 225 -47 308 -19 105 37 199
120 250 224 l32 65 3 325 c2 209 7 329 14 337 16 19 1016 18 1148 -2 411 -59
761 -309 953 -677 39 -74 65 -145 105 -283 l26 -90 3 -723 c3 -550 2 -727 -8
-738 -18 -21 -10360 -21 -10378 0 -10 11 -11 187 -8 738 l4 723 26 95 c32 118
66 210 108 286 196 366 536 607 944 669 117 18 1138 20 1153 2z"/>
<path d="M9580 8451 c-287 -22 -678 -124 -946 -246 -353 -161 -607 -338 -884
-615 -398 -397 -640 -824 -783 -1375 -15 -58 -34 -154 -57 -280 -20 -116 -32
-361 -26 -538 16 -439 122 -845 323 -1237 211 -409 487 -736 861 -1019 159
-120 396 -260 562 -331 130 -55 197 -82 225 -90 17 -5 57 -18 90 -30 33 -11
114 -34 180 -50 480 -117 1047 -109 1500 21 39 11 84 24 100 29 80 22 287 106
415 168 540 259 1014 723 1314 1286 51 96 170 380 197 471 61 207 103 417 120
610 11 119 13 411 4 527 -15 191 -74 496 -125 643 -12 33 -25 74 -30 90 -18
67 -95 242 -167 383 -271 529 -749 1005 -1273 1267 -14 7 -47 24 -75 38 -75
38 -209 91 -315 126 -52 17 -109 36 -127 41 -95 31 -246 64 -413 90 -143 23
-500 33 -670 21z m635 -869 c55 -12 127 -28 160 -38 33 -9 74 -20 90 -24 92
-25 357 -144 454 -205 358 -224 621 -509 798 -865 104 -210 151 -354 195 -590
18 -95 21 -155 22 -350 1 -240 -4 -286 -51 -495 -127 -568 -538 -1096 -1068
-1375 -202 -105 -372 -162 -650 -216 -139 -28 -529 -25 -685 4 -237 44 -380
91 -590 195 -353 175 -638 438 -865 798 -60 95 -180 363 -205 454 -4 17 -17
64 -28 105 -49 181 -57 252 -57 520 0 291 10 373 72 590 72 254 211 521 381
735 72 90 237 255 327 327 284 226 649 388 985 437 41 6 86 13 100 15 14 2
135 3 270 1 201 -2 263 -6 345 -23z"/>
<path d="M10880 6621 c-57 -10 -107 -29 -145 -54 -16 -11 -287 -276 -600 -588
-314 -313 -575 -569 -580 -569 -6 0 -127 117 -270 261 -340 341 -374 367 -513
391 -184 31 -359 -64 -444 -241 -30 -62 -32 -73 -32 -176 0 -105 2 -113 35
-180 31 -64 73 -109 489 -526 289 -290 476 -470 512 -493 60 -38 155 -66 223
-65 60 0 150 24 203 54 66 38 1517 1488 1561 1560 160 263 -15 607 -319 628
-41 3 -95 2 -120 -2z"/>
</g>
</svg>
