<svg xmlns="http://www.w3.org/2000/svg" version="1.0" width="1536.000000pt" height="1536.000000pt" viewBox="0 0 1536.000000 1536.000000" preserveAspectRatio="xMidYMid meet">
<metadata fill="#ffffff">
Created by potrace 1.10, written by Peter Selinger 2001-2011
</metadata>
<g transform="translate(0.000000,1536.000000) scale(0.100000,-0.100000)" fill="#ffffff" stroke="none">
<path d="M3815 14725 c-150 -24 -241 -71 -356 -185 -81 -80 -108 -121 -147 -220 -41 -105 -42 -136 -42 -1123 l0 -948 25 -52 c35 -75 101 -117 185 -117 98 0 170 50 203 141 8 25 13 291 17 991 l5 956 30 44 c17 23 51 54 75 68 l45 25 4525 0 4525 0 42 -22 c45 -24 76 -59 101 -113 16 -32 17 -257 20 -2933 1 -1998 -1 -2904 -8 -2918 -11 -19 -30 -19 -1123 -19 -966 0 -1121 -2 -1171 -15 -80 -21 -121 -41 -188 -92 -66 -50 -107 -100 -144 -174 -49 -96 -53 -143 -54 -559 0 -287 -3 -389 -12 -398 -18 -18 -1667 -17 -1691 1 -15 11 -16 16 -1 62 24 78 21 347 -5 445 -22 86 -59 186 -91 251 -63 124 -207 286 -328 368 -35 23 -66 50 -69 58 -6 15 42 178 73 251 8 18 14 39 14 47 0 8 6 29 14 47 8 18 35 101 61 183 99 322 137 441 150 475 7 19 34 103 60 185 26 83 60 191 76 240 99 308 121 375 163 510 26 83 54 173 63 200 8 28 22 65 29 83 8 18 14 39 14 47 0 8 6 29 14 47 16 36 69 209 86 275 21 85 -30 192 -111 233 -47 25 -137 26 -185 4 -69 -33 -97 -79 -148 -240 -26 -82 -54 -164 -62 -182 -8 -18 -14 -39 -14 -47 0 -8 -6 -29 -14 -47 -8 -18 -35 -100 -61 -183 -99 -322 -137 -441 -150 -475 -7 -19 -34 -102 -60 -185 -25 -82 -52 -168 -60 -190 -7 -22 -34 -107 -60 -190 -26 -82 -53 -166 -60 -185 -17 -46 -66 -199 -105 -330 -17 -58 -38 -120 -46 -138 -8 -18 -14 -39 -14 -47 0 -8 -6 -29 -14 -47 -8 -18 -24 -67 -37 -109 -13 -43 -28 -84 -34 -93 -9 -12 -40 -16 -145 -21 -138 -5 -185 -15 -325 -68 -125 -47 -234 -114 -330 -203 -55 -51 -465 -444 -600 -575 -174 -170 -228 -217 -265 -236 -33 -17 -142 -18 -2015 -24 -2174 -6 -1984 -1 -2240 -59 -55 -12 -244 -74 -272 -89 -10 -5 -49 -24 -88 -42 -538 -252 -939 -763 -1059 -1349 -22 -111 -45 -231 -49 -265 -5 -35 -93 -566 -107 -640 -5 -27 -16 -95 -25 -150 -9 -55 -23 -134 -30 -175 -8 -41 -21 -118 -30 -170 -9 -52 -20 -117 -25 -145 -5 -27 -32 -189 -60 -360 -51 -314 -74 -451 -91 -538 -5 -27 -9 -104 -9 -171 0 -136 15 -199 73 -311 43 -84 173 -211 257 -252 103 -50 139 -61 229 -72 56 -8 733 -11 2055 -11 1658 0 1986 3 2065 15 52 8 99 19 104 24 6 6 19 11 29 11 32 0 160 84 224 147 65 65 108 131 152 236 l27 62 5 1090 c5 1020 6 1093 23 1118 9 15 27 29 40 32 12 2 283 6 602 8 l580 4 122 26 c165 36 256 69 418 149 200 100 315 190 620 487 61 59 223 215 360 346 138 132 287 275 333 320 l83 80 2262 6 c2526 6 2308 -1 2473 79 123 59 226 162 281 280 80 169 73 -195 73 3706 0 3454 0 3490 -20 3559 -38 133 -83 212 -173 300 -113 110 -226 166 -376 184 -133 17 -9000 13 -9106 -4z m3992 -6800 c19 -8 42 -15 50 -15 8 0 45 -15 83 -33 297 -147 416 -509 265 -809 -31 -61 -100 -152 -151 -198 -31 -27 -415 -393 -525 -500 -136 -132 -422 -404 -454 -431 -159 -138 -341 -232 -542 -281 -83 -20 -122 -22 -703 -28 -670 -7 -646 -5 -769 -67 -106 -54 -208 -180 -245 -303 -6 -23 -12 -416 -15 -1127 l-6 -1091 -30 -43 c-17 -24 -50 -57 -74 -74 l-43 -30 -451 -3 c-248 -2 -461 -1 -474 3 l-23 5 0 384 c0 228 -5 417 -11 467 -28 207 -161 364 -356 419 -64 19 -102 20 -610 20 -427 0 -543 3 -544 13 -3 37 3 100 16 162 49 247 87 506 80 551 -8 53 -38 99 -93 141 -40 30 -50 33 -113 33 -71 0 -96 -9 -147 -54 -45 -39 -61 -91 -97 -307 -43 -258 -62 -370 -81 -469 -7 -41 -15 -91 -17 -110 -2 -19 -9 -55 -15 -80 -6 -25 -16 -81 -23 -125 -7 -44 -15 -100 -19 -125 -12 -77 -69 -422 -80 -480 -5 -30 -12 -73 -15 -95 -3 -22 -10 -60 -15 -85 -5 -25 -17 -90 -26 -145 -10 -55 -22 -106 -27 -113 -8 -11 -101 -12 -471 -10 -454 3 -462 3 -503 25 -69 37 -113 110 -113 186 0 41 11 119 35 247 8 41 16 89 18 105 5 35 109 667 133 800 8 50 22 124 29 165 7 41 21 118 30 170 9 52 20 118 25 145 5 28 32 190 60 360 61 378 78 478 92 530 6 22 14 58 18 80 22 120 151 397 227 490 5 6 29 37 55 70 101 132 241 255 403 352 173 103 316 155 530 193 107 19 170 20 2050 20 1893 0 1942 1 2020 20 97 24 203 75 269 130 27 22 151 138 275 258 124 119 278 267 341 327 63 61 147 141 185 178 82 79 180 142 274 173 83 28 260 33 318 9z m5257 -77 c3 -13 6 -146 6 -297 0 -323 -7 -366 -72 -431 -22 -22 -56 -45 -76 -52 -47 -16 -2044 -24 -2086 -8 l-26 10 0 375 0 376 25 24 24 25 1099 0 1100 0 6 -22z m-9822 -4106 l23 -23 3 -394 c2 -269 -1 -401 -8 -415 -11 -20 -19 -20 -648 -20 -350 0 -643 4 -651 9 -10 7 -11 19 -3 62 6 30 17 95 26 144 8 50 22 131 30 180 9 50 29 173 46 275 23 137 35 188 48 198 13 10 133 12 564 10 l547 -3 23 -23z" fill="#ffffff"/>
<path d="M4916 13289 c-49 -12 -90 -41 -127 -92 -26 -35 -29 -48 -29 -111 0 -50 5 -79 17 -96 33 -50 69 -83 111 -101 42 -18 96 -19 1544 -19 1096 0 1511 3 1539 11 89 27 149 109 149 204 0 104 -68 186 -170 205 -68 13 -2979 12 -3034 -1z" fill="#ffffff"/>
<path d="M4925 12191 c-105 -26 -165 -101 -165 -207 0 -89 35 -150 110 -190 34 -18 135 -19 3604 -22 2309 -1 3581 1 3605 8 48 13 107 63 132 113 49 96 1 229 -100 279 l-46 23 -3555 2 c-1955 0 -3568 -2 -3585 -6z" fill="#ffffff"/>
<path d="M3165 11815 c-528 -60 -1011 -335 -1333 -759 -62 -82 -192 -285 -192 -301 0 -2 -13 -32 -29 -67 -77 -167 -135 -357 -162 -533 -18 -117 -18 -463 -1 -570 25 -152 76 -337 118 -432 8 -17 14 -34 14 -38 0 -9 91 -191 118 -235 12 -19 26 -44 31 -55 17 -35 153 -210 225 -289 88 -97 214 -205 337 -287 124 -84 120 -81 224 -133 115 -56 150 -71 260 -107 353 -115 713 -131 1062 -48 505 122 920 415 1206 855 50 78 147 265 172 335 93 256 135 479 135 719 0 738 -417 1415 -1075 1748 -124 62 -234 106 -345 135 -276 73 -504 92 -765 62z m530 -445 c210 -45 373 -113 549 -230 256 -170 474 -445 582 -733 30 -80 73 -257 85 -353 16 -130 6 -370 -20 -495 -90 -419 -347 -781 -713 -1004 -154 -93 -367 -172 -528 -196 -230 -35 -284 -35 -520 0 -93 13 -232 55 -346 104 -488 209 -826 650 -913 1188 -23 143 -8 457 29 584 51 180 91 275 178 424 165 283 478 542 787 650 88 31 260 72 340 82 119 13 378 3 490 -21z" fill="#ffffff"/>
<path d="M6165 11073 c-80 -42 -115 -100 -115 -190 0 -60 4 -74 33 -117 20 -31 49 -57 77 -72 l45 -24 745 0 746 0 44 23 c58 29 105 92 114 151 14 90 -15 159 -88 212 l-41 29 -765 2 c-684 2 -768 1 -795 -14z" fill="#ffffff"/>
<path d="M10103 11069 c-50 -25 -84 -67 -108 -135 -17 -48 -17 -52 0 -106 19 -62 59 -109 117 -139 37 -19 65 -19 990 -17 l953 3 42 27 c51 33 94 103 101 164 8 78 -43 165 -120 205 -36 18 -72 19 -985 19 -939 0 -948 0 -990 -21z" fill="#ffffff"/>
<path d="M9579 9563 c-159 -81 -158 -292 3 -380 31 -17 92 -18 1138 -21 608 -2 1133 0 1168 3 113 12 192 96 192 207 0 69 -9 95 -52 143 -70 80 27 75 -1254 75 l-1140 0 -55 -27z" fill="#ffffff"/>
<path d="M8426 5908 c-50 -14 -118 -83 -134 -136 -9 -30 -12 -418 -12 -1579 0 -1733 -6 -1600 76 -1672 66 -58 150 -69 231 -30 56 27 98 82 112 147 8 38 11 479 11 1560 0 1615 1 1571 -50 1639 -47 64 -149 95 -234 71z" fill="#ffffff"/>
</g>
</svg>