<?xml version="1.0" standalone="no"?>
<!DOCTYPE svg PUBLIC "-//W3C//DTD SVG 20010904//EN"
 "http://www.w3.org/TR/2001/REC-SVG-20010904/DTD/svg10.dtd">
<svg version="1.0" xmlns="http://www.w3.org/2000/svg"
 width="1536.000000pt" height="1536.000000pt" viewBox="0 0 1536.000000 1536.000000"
 preserveAspectRatio="xMidYMid meet">
<metadata>
Created by potrace 1.10, written by Peter Selinger 2001-2011
</metadata>
<g transform="translate(0.000000,1536.000000) scale(0.100000,-0.100000)"
fill="#000000" stroke="none">
<path d="M2463 15348 c1 -8 -18 -15 -53 -20 -125 -19 -359 -79 -435 -112 -16
-8 -66 -29 -110 -47 -80 -33 -339 -181 -350 -200 -4 -5 -24 -21 -45 -34 -91
-57 -277 -244 -386 -387 -41 -53 -74 -100 -74 -103 0 -4 -11 -21 -24 -38 -38
-50 -134 -232 -159 -302 -71 -196 -102 -305 -132 -470 -26 -137 -26 -476 -1
-620 39 -223 102 -416 199 -610 19 -38 33 -75 30 -82 -2 -7 -50 -46 -106 -88
-105 -77 -251 -219 -345 -335 -55 -67 -196 -275 -213 -313 -5 -12 -13 -29 -18
-37 -51 -81 -171 -401 -186 -496 -3 -22 -12 -66 -20 -99 -46 -202 -45 -532 2
-695 19 -68 23 -178 6 -188 -7 -4 -19 -24 -28 -45 -13 -32 -15 -198 -15 -1434
l1 -1398 22 -44 c29 -57 84 -101 139 -112 24 -4 398 -8 831 -9 517 0 795 -4
807 -10 22 -12 40 -41 51 -85 4 -16 17 -55 29 -85 12 -30 26 -68 30 -85 15
-52 40 -115 76 -194 20 -42 46 -98 59 -126 13 -27 39 -85 59 -128 20 -42 36
-81 36 -85 0 -3 -254 -261 -564 -572 -365 -366 -573 -582 -591 -614 -39 -67
-39 -145 -1 -209 16 -28 408 -428 993 -1013 1061 -1060 1019 -1023 1123 -1011
27 3 66 15 88 26 24 12 266 246 607 586 514 513 571 566 595 562 14 -3 66 -24
116 -47 178 -83 239 -112 259 -122 11 -6 33 -15 50 -19 16 -4 55 -17 85 -29
30 -12 70 -25 88 -30 18 -4 38 -12 45 -17 7 -5 30 -15 52 -22 22 -7 50 -20 63
-27 l22 -14 1 -793 c0 -435 4 -813 8 -840 10 -62 53 -115 121 -149 l54 -28
1386 0 1387 0 61 30 c47 24 67 41 89 78 l28 47 5 827 c3 562 8 830 16 838 5 5
37 19 70 30 32 12 68 24 79 29 57 24 86 35 152 56 39 13 110 42 158 64 47 23
88 41 90 41 2 0 50 22 107 50 57 27 112 50 123 50 13 0 211 -191 575 -555 305
-306 577 -570 605 -588 43 -28 58 -32 115 -32 43 1 77 7 100 19 46 24 1983
1960 2006 2006 25 48 25 153 0 200 -10 19 -275 292 -589 607 -532 534 -569
573 -564 600 3 15 32 84 65 153 103 217 113 240 137 313 21 66 32 95 56 152 5
11 17 47 29 79 11 33 25 65 30 70 8 8 276 13 838 16 l827 5 45 27 c42 26 52
36 90 98 13 22 15 190 18 1426 l2 1402 -35 66 c-33 63 -35 69 -25 119 5 29 19
99 30 157 32 170 36 330 11 495 -12 77 -30 178 -41 225 -60 267 -225 612 -392
819 -78 97 -244 266 -313 319 -94 72 -165 135 -165 146 0 5 20 51 44 100 99
206 133 311 188 591 7 36 12 155 12 300 0 208 -3 255 -22 355 -13 63 -27 123
-32 132 -6 10 -10 26 -10 35 0 35 -80 257 -130 364 -22 44 -71 130 -110 194
-14 22 -30 47 -35 56 -11 17 -84 115 -119 158 -12 14 -64 70 -116 124 -121
125 -245 221 -445 344 -53 33 -228 113 -247 113 -7 0 -22 7 -32 15 -11 8 -28
15 -38 15 -9 0 -32 6 -50 14 -72 31 -237 70 -340 81 -41 5 -58 11 -58 21 0 12
-37 14 -230 14 -178 0 -229 -3 -228 -12 2 -9 -18 -16 -57 -21 -271 -38 -577
-150 -778 -284 -44 -29 -82 -53 -84 -53 -2 0 -39 -27 -81 -59 -97 -75 -250
-224 -330 -321 -34 -41 -75 -91 -92 -111 -16 -20 -30 -39 -30 -43 0 -3 -20
-39 -44 -79 -55 -90 -126 -224 -137 -257 -4 -14 -26 -77 -48 -140 -23 -63 -41
-124 -41 -135 0 -10 -6 -37 -14 -60 -8 -22 -22 -84 -31 -138 -25 -141 -32
-140 -59 13 -9 52 -24 118 -31 146 -8 28 -15 58 -15 67 0 9 -6 31 -14 49 -7
18 -28 71 -46 118 -39 103 -120 272 -155 324 -14 20 -25 40 -25 44 -1 4 -21
34 -45 67 -25 33 -56 78 -71 99 -41 61 -271 287 -359 353 -69 51 -156 110
-240 160 -29 17 -154 78 -195 96 -90 37 -121 49 -210 76 -113 34 -224 58 -302
66 -41 5 -58 11 -58 21 0 12 -37 14 -230 14 -176 0 -229 -3 -227 -12 1 -8 -18
-15 -53 -20 -78 -12 -198 -38 -245 -53 -22 -8 -56 -17 -75 -21 -19 -3 -62 -18
-95 -31 -33 -14 -94 -39 -135 -56 -41 -17 -82 -35 -90 -41 -8 -6 -33 -20 -55
-31 -68 -33 -274 -176 -339 -234 -191 -173 -353 -370 -447 -546 -45 -82 -99
-195 -99 -204 0 -5 -13 -39 -30 -76 -16 -37 -30 -73 -30 -81 0 -7 -6 -28 -14
-46 -16 -39 -41 -144 -56 -243 -6 -38 -16 -85 -22 -104 -14 -44 -23 -28 -37
64 -6 39 -17 99 -26 135 -9 36 -20 83 -24 105 -5 22 -14 56 -21 75 -7 19 -18
51 -25 70 -29 79 -81 198 -107 243 -15 26 -28 50 -28 53 0 11 -97 164 -141
222 -46 60 -162 195 -205 237 -74 72 -284 239 -324 259 -16 7 -32 17 -95 57
-168 106 -505 221 -717 244 -41 5 -58 11 -58 21 0 12 -37 14 -230 14 -176 0
-229 -3 -227 -12z m372 -458 c218 -27 205 -24 345 -71 114 -38 134 -47 224
-93 397 -206 665 -528 798 -956 53 -174 63 -240 63 -450 0 -276 -36 -430 -166
-704 -105 -221 -356 -498 -574 -633 -38 -24 -200 -105 -225 -113 -14 -5 -50
-18 -80 -30 -61 -24 -128 -43 -240 -68 -107 -24 -473 -24 -580 0 -130 29 -183
45 -244 72 -32 14 -62 26 -67 26 -29 0 -248 121 -312 173 -26 20 -68 54 -94
74 -97 76 -313 318 -313 351 0 5 -12 27 -28 48 -63 90 -145 290 -192 472 -31
118 -36 487 -9 612 6 25 14 63 18 85 8 44 27 103 48 152 7 17 13 36 13 43 0
20 93 203 147 286 77 122 188 249 299 344 95 82 185 150 198 150 4 0 23 11 44
23 54 35 173 97 184 97 6 0 24 6 41 13 61 26 102 39 149 47 26 5 55 13 65 18
10 5 47 13 83 17 36 4 90 10 120 14 82 12 195 12 285 1z m4055 -1 c41 -5 102
-13 135 -17 33 -4 66 -11 73 -15 6 -5 33 -12 60 -17 77 -13 124 -32 281 -110
95 -47 137 -72 256 -154 91 -63 268 -248 341 -358 212 -318 305 -664 273
-1021 -12 -146 -50 -322 -85 -404 -8 -17 -14 -36 -14 -43 0 -7 -6 -24 -14 -38
-8 -15 -30 -60 -50 -100 -144 -287 -393 -541 -673 -684 -53 -27 -114 -56 -137
-64 -122 -44 -230 -77 -301 -91 -103 -21 -438 -29 -515 -13 -180 37 -282 65
-365 100 -275 116 -513 299 -671 517 -161 221 -224 363 -286 638 -30 136 -33
465 -5 590 30 130 48 198 63 233 8 18 14 38 14 45 0 17 82 185 116 238 16 24
31 49 34 55 21 45 114 157 211 253 107 107 217 201 235 201 4 0 15 6 23 14 25
23 222 123 287 146 32 12 73 28 91 36 17 8 40 14 51 14 12 0 33 5 49 11 26 10
82 20 228 39 87 11 209 11 295 -1z m4140 -9 c112 -17 237 -51 317 -86 17 -8
35 -14 40 -14 17 0 207 -102 273 -146 162 -108 321 -264 437 -429 84 -120 223
-439 223 -512 0 -14 5 -33 11 -44 6 -11 17 -86 25 -167 31 -299 -17 -569 -151
-848 -113 -234 -271 -423 -498 -594 -81 -61 -221 -135 -347 -185 -25 -9 -56
-22 -70 -27 -30 -13 -109 -33 -210 -56 -106 -23 -461 -23 -575 0 -96 20 -181
42 -215 56 -14 5 -45 18 -70 27 -109 43 -302 146 -339 183 -8 8 -31 24 -51 37
-56 35 -227 209 -298 302 -34 45 -62 84 -62 87 0 3 -13 25 -29 48 -72 107
-141 279 -191 478 -61 244 -37 608 55 850 72 190 126 288 241 441 97 129 297
312 402 370 21 11 51 29 67 39 31 20 48 28 156 78 80 38 181 72 209 72 12 0
31 5 43 11 11 7 53 16 91 21 39 5 98 13 131 18 74 11 284 5 385 -10z m-6286
-1870 c33 -184 70 -317 126 -445 29 -67 64 -145 81 -178 27 -53 24 -71 -15
-101 -19 -14 -40 -31 -48 -38 -42 -41 -159 -128 -170 -128 -14 0 -53 29 -165
121 -107 88 -104 72 -40 207 59 124 82 182 98 247 6 21 14 44 18 50 5 5 11 24
14 40 4 17 14 64 22 105 9 41 19 89 21 105 27 161 32 162 58 15z m4046 24 c6
-32 15 -85 20 -117 6 -33 13 -64 17 -70 4 -6 10 -29 14 -52 4 -22 12 -56 19
-75 7 -19 18 -51 25 -70 23 -64 78 -195 88 -207 19 -26 47 -88 47 -105 0 -10
-12 -29 -27 -42 -107 -93 -197 -167 -212 -175 -13 -8 -29 0 -70 32 -108 85
-201 169 -201 181 0 7 14 39 31 72 36 66 107 235 119 279 4 17 12 41 18 55 11
28 32 122 57 250 26 140 25 137 35 119 5 -9 14 -42 20 -75z m3522 -1087 c7 -7
49 -40 93 -74 92 -69 218 -199 305 -313 33 -44 60 -81 60 -84 0 -3 11 -21 25
-42 26 -39 112 -214 137 -279 120 -316 138 -616 55 -918 -7 -27 -20 -53 -28
-58 -8 -5 -741 -9 -1780 -9 -1576 0 -1768 2 -1779 15 -10 12 -11 27 -2 68 24
109 36 226 37 337 0 126 -19 327 -39 405 -8 28 -19 73 -26 100 -7 28 -15 66
-18 85 -2 19 -11 44 -18 55 -8 11 -14 25 -14 32 0 7 -20 56 -45 109 -25 52
-45 99 -45 103 0 5 -25 48 -55 97 -30 49 -59 99 -64 111 -5 11 -15 24 -20 28
-6 3 -11 19 -11 34 0 21 12 38 52 72 90 76 162 129 170 127 4 -2 49 -42 100
-90 116 -108 158 -142 278 -221 93 -62 297 -171 349 -187 14 -5 51 -18 81 -30
30 -12 71 -25 90 -29 19 -4 53 -13 75 -20 91 -29 109 -33 188 -42 45 -6 114
-14 152 -19 192 -24 537 7 700 62 17 5 46 14 65 18 19 4 60 18 90 30 30 12 67
25 83 30 27 9 171 79 237 117 142 81 278 183 400 302 52 50 97 91 101 91 4 0
14 -6 21 -13z m-11035 -63 c59 -57 135 -123 232 -200 71 -56 342 -206 431
-238 63 -23 154 -53 210 -69 142 -41 155 -43 370 -68 103 -12 370 -6 442 10
23 6 72 15 108 21 102 17 155 30 290 74 94 30 305 131 380 181 29 19 54 35 56
35 18 0 202 148 301 243 76 73 83 78 105 66 47 -24 208 -166 208 -183 0 -5
-36 -69 -80 -142 -44 -73 -80 -136 -80 -140 0 -4 -14 -36 -30 -71 -16 -34 -30
-68 -30 -74 0 -6 -5 -20 -12 -32 -28 -49 -55 -142 -78 -259 -5 -26 -13 -55
-18 -65 -5 -10 -12 -69 -16 -132 -4 -63 -11 -134 -17 -157 -12 -48 12 -323 37
-423 9 -37 10 -59 3 -72 -9 -19 -55 -19 -1781 -19 -1634 0 -1773 1 -1790 17
-10 9 -18 29 -18 45 0 16 -5 38 -11 49 -19 36 -41 202 -42 319 -2 115 13 239
39 337 8 28 14 59 14 70 0 10 7 31 15 47 8 15 15 34 15 42 0 29 126 291 175
364 19 29 35 55 35 59 0 3 10 17 23 31 12 14 42 50 66 80 102 127 324 320 368
320 6 0 42 -30 80 -66z m4033 13 c94 -90 221 -196 294 -245 90 -59 82 -55 239
-133 187 -95 293 -134 422 -158 23 -4 46 -11 53 -15 7 -4 49 -12 95 -17 45 -6
114 -14 152 -19 90 -11 260 -11 350 0 39 5 104 13 145 18 41 5 91 14 110 20
52 15 121 33 155 38 17 3 44 11 60 19 17 7 49 20 73 29 258 97 478 237 688
438 45 43 87 78 95 78 20 -1 160 -108 235 -180 190 -182 366 -458 424 -665 4
-16 13 -43 19 -60 5 -16 16 -57 25 -90 56 -229 60 -457 11 -636 -9 -30 -18
-70 -21 -89 -4 -19 -13 -41 -22 -47 -13 -10 -462 -13 -2173 -13 -1993 0 -2158
1 -2170 17 -14 16 -24 54 -55 208 -22 107 -23 324 -1 430 41 206 61 272 125
415 47 107 67 146 108 205 22 33 43 66 45 73 9 26 166 205 237 269 98 89 193
162 212 162 8 1 40 -23 70 -52z m7728 -3282 c1 -605 0 -1110 -3 -1122 l-5 -22
-798 -3 -797 -3 -35 -22 c-73 -45 -102 -93 -145 -238 -25 -86 -45 -145 -61
-182 -8 -17 -14 -36 -14 -42 0 -6 -6 -25 -14 -43 -8 -18 -29 -69 -46 -113 -50
-124 -117 -264 -235 -495 -34 -66 -38 -83 -38 -147 0 -60 4 -78 25 -110 14
-21 269 -281 567 -579 297 -298 541 -547 541 -555 0 -19 -1561 -1579 -1580
-1579 -8 0 -260 245 -560 545 -300 300 -560 555 -579 567 -26 17 -50 21 -105
21 -66 0 -79 -4 -166 -48 -212 -109 -324 -162 -430 -205 -30 -12 -86 -35 -125
-51 -38 -15 -82 -31 -98 -35 -15 -3 -30 -10 -33 -15 -3 -5 -14 -9 -24 -9 -11
0 -34 -6 -52 -14 -18 -8 -60 -22 -93 -31 -144 -42 -193 -72 -238 -145 l-22
-35 -3 -797 -3 -798 -22 -5 c-12 -3 -517 -4 -1122 -3 l-1100 3 -5 785 c-3 432
-10 796 -15 810 -22 63 -91 140 -124 140 -6 0 -25 6 -43 14 -18 8 -80 29 -138
47 -58 17 -119 38 -137 46 -17 7 -35 13 -41 13 -10 0 -140 53 -185 76 -16 8
-33 14 -38 14 -17 0 -147 62 -403 192 -89 46 -107 51 -165 51 -48 1 -77 -5
-106 -21 -24 -12 -264 -245 -585 -566 -300 -300 -549 -546 -555 -546 -19 0
-1575 1564 -1575 1584 0 12 201 220 538 555 296 295 549 552 562 571 21 30 25
46 25 115 0 79 -1 81 -64 200 -89 169 -87 164 -114 225 -63 142 -173 419 -202
510 -10 30 -24 72 -31 93 -8 20 -14 45 -14 54 0 26 -46 116 -72 139 -12 12
-39 30 -58 40 -33 18 -76 19 -824 22 -553 2 -794 6 -803 14 -11 8 -13 212 -13
1108 0 604 3 1105 6 1114 6 15 567 16 6298 14 l6291 -3 3 -1100z"/>
<path d="M3087 8811 c-47 -10 -105 -56 -134 -107 -21 -37 -23 -50 -22 -229 0
-104 5 -221 10 -260 5 -38 13 -101 18 -140 4 -38 11 -77 14 -85 4 -8 11 -51
16 -95 5 -44 15 -100 21 -125 7 -25 18 -67 25 -95 8 -27 21 -79 31 -115 21
-84 54 -182 64 -195 4 -5 10 -21 13 -35 3 -14 15 -50 27 -80 12 -30 25 -69 30
-86 7 -31 162 -348 221 -454 55 -98 163 -265 229 -354 135 -180 154 -204 253
-311 225 -242 391 -392 586 -530 24 -16 57 -42 74 -56 18 -14 54 -39 80 -55
27 -16 61 -37 75 -46 36 -23 73 -45 97 -58 11 -5 43 -23 70 -40 28 -16 73 -40
100 -54 183 -90 292 -139 366 -164 46 -17 122 -44 169 -62 85 -31 165 -56 230
-70 19 -4 80 -19 135 -33 120 -30 213 -46 320 -57 44 -5 98 -13 120 -19 56
-16 763 -16 830 -1 28 7 86 16 130 20 44 5 98 13 120 19 22 6 55 11 74 11 19
0 57 6 85 14 28 8 80 22 116 31 133 33 224 61 365 114 44 16 96 35 115 42 42
15 114 47 275 123 100 48 180 93 420 239 30 19 327 243 355 269 14 13 68 61
120 108 117 104 116 103 220 220 47 52 95 106 108 120 26 28 250 325 269 355
146 240 191 320 239 420 76 161 108 233 123 275 7 19 26 71 42 115 53 141 81
232 114 365 9 36 23 88 31 116 8 28 14 66 14 85 0 19 5 52 11 74 6 22 14 76
19 120 4 44 13 100 18 125 6 25 12 144 13 265 3 205 2 222 -17 256 -23 41 -34
53 -84 88 -29 21 -45 25 -111 24 -71 0 -80 -3 -121 -34 -84 -63 -90 -85 -112
-399 -8 -107 -19 -226 -25 -265 -26 -151 -43 -242 -56 -290 -8 -27 -21 -79
-30 -115 -23 -92 -47 -173 -56 -185 -4 -5 -12 -26 -17 -45 -54 -184 -187 -457
-334 -688 -10 -15 -21 -34 -25 -42 -3 -8 -57 -82 -119 -165 -207 -275 -414
-482 -689 -689 -82 -62 -157 -116 -165 -119 -8 -4 -27 -15 -42 -25 -231 -147
-504 -280 -688 -334 -19 -5 -39 -13 -45 -17 -12 -9 -93 -33 -185 -56 -36 -9
-87 -22 -115 -30 -48 -13 -137 -30 -290 -56 -222 -36 -715 -39 -935 -4 -176
28 -275 46 -320 60 -45 13 -112 30 -180 45 -41 9 -97 28 -125 43 -11 6 -33 14
-50 18 -49 12 -165 57 -240 93 -38 19 -115 55 -170 81 -55 27 -136 71 -180
100 -44 28 -103 65 -130 82 -96 57 -308 223 -424 330 -224 207 -439 462 -571
677 -30 48 -63 100 -72 115 -101 158 -250 500 -309 706 -11 39 -27 90 -35 115
-8 25 -14 55 -14 67 0 13 -6 40 -14 60 -30 85 -73 386 -85 603 -11 192 -16
223 -46 270 -47 74 -142 110 -238 91z"/>
<path d="M150 2284 c-196 -69 -198 -342 -2 -418 60 -23 534 -24 589 -1 125 52
182 176 135 292 -22 55 -52 87 -104 115 -41 22 -53 23 -308 25 -220 2 -273 0
-310 -13z"/>
<path d="M1279 2286 c-54 -19 -105 -62 -130 -109 -30 -57 -30 -152 0 -200 31
-50 71 -87 116 -108 38 -18 110 -19 1647 -19 1489 0 1611 1 1650 17 24 9 49
23 56 30 7 7 19 16 26 20 6 5 23 26 36 48 20 32 24 53 24 110 0 106 -43 170
-142 208 -39 16 -170 17 -1645 17 -1278 -1 -1609 -3 -1638 -14z"/>
<path d="M8929 2286 c-20 -7 -53 -25 -73 -41 -107 -81 -108 -258 -2 -339 79
-60 -39 -56 1711 -56 1748 0 1632 -4 1710 56 59 45 79 88 79 169 0 77 -16 116
-71 166 -68 63 47 59 -1716 59 -1278 -1 -1609 -3 -1638 -14z"/>
<path d="M12744 2284 c-108 -39 -171 -159 -140 -268 20 -68 78 -128 146 -151
73 -24 560 -18 606 7 77 42 134 129 134 203 0 85 -72 180 -158 209 -64 22
-526 22 -588 0z"/>
</g>
</svg>
