<svg xmlns="http://www.w3.org/2000/svg" version="1.0" width="1536.000000pt" height="1536.000000pt" viewBox="0 0 1536.000000 1536.000000" preserveAspectRatio="xMidYMid meet">
<metadata fill="#ffffff">
Created by potrace 1.10, written by Peter Selinger 2001-2011
</metadata>
<g transform="translate(0.000000,1536.000000) scale(0.100000,-0.100000)" fill="#ffffff" stroke="none">
<path d="M6463 15348 c1 -8 -18 -15 -53 -20 -314 -46 -553 -122 -814 -258 -150 -78 -216 -121 -451 -295 -104 -77 -242 -178 -305 -223 -63 -46 -189 -137 -280 -203 -244 -178 -421 -305 -550 -398 -169 -120 -231 -184 -281 -287 -131 -270 -28 -577 241 -722 65 -35 144 -52 245 -52 103 0 164 14 246 55 31 16 317 221 329 235 3 4 48 38 100 76 52 38 111 81 130 96 19 15 112 84 205 153 94 70 178 132 187 140 9 7 65 49 125 92 59 43 117 86 128 95 59 49 288 216 343 251 101 63 243 121 412 168 25 6 104 18 175 25 373 36 725 -71 1025 -310 36 -28 110 -87 165 -131 55 -43 120 -95 144 -114 24 -20 67 -54 95 -76 29 -22 72 -57 96 -77 25 -20 196 -157 380 -303 184 -147 351 -279 370 -295 426 -340 962 -767 1020 -813 41 -32 102 -81 135 -107 33 -27 177 -142 320 -255 143 -114 280 -223 305 -243 25 -20 126 -101 225 -180 99 -79 189 -151 200 -160 11 -9 40 -33 65 -53 622 -493 669 -533 748 -641 52 -71 117 -193 142 -267 53 -160 50 34 50 -3044 0 -2760 -1 -2848 -19 -2953 -22 -125 -41 -196 -71 -274 -12 -30 -24 -63 -27 -73 -8 -25 -99 -200 -130 -250 -80 -128 -239 -302 -363 -397 -214 -164 -422 -255 -720 -317 -77 -16 -157 -18 -815 -18 l-730 0 -45 30 c-24 17 -58 52 -75 79 l-30 49 -5 1336 c-5 1199 -7 1345 -22 1426 -17 86 -65 251 -86 291 -5 10 -18 37 -28 59 -175 370 -525 661 -914 761 -173 43 -196 44 -1249 44 -832 0 -1020 -3 -1100 -15 -136 -21 -244 -52 -347 -101 -28 -13 -54 -24 -57 -24 -13 0 -188 -110 -247 -155 -272 -210 -461 -523 -527 -875 -16 -84 -18 -162 -18 -685 0 -542 1 -595 18 -649 83 -267 338 -423 611 -373 214 39 391 217 425 427 7 39 11 267 11 575 0 548 2 571 52 651 35 54 91 102 158 133 l55 26 955 0 c922 0 957 -1 1013 -20 80 -27 148 -89 189 -173 l33 -67 6 -1350 c4 -934 9 -1367 17 -1405 42 -206 145 -429 265 -574 77 -94 102 -118 182 -185 193 -161 392 -249 660 -293 113 -18 1428 -19 1600 0 285 30 608 113 810 207 372 172 604 333 855 591 414 427 659 940 742 1554 19 141 19 5898 0 6015 -15 91 -37 193 -54 245 -6 19 -15 49 -19 65 -14 57 -66 190 -109 280 -113 235 -287 470 -471 636 -46 42 -176 149 -289 238 -113 90 -214 170 -225 179 -11 10 -96 78 -190 152 -210 167 -809 645 -890 710 -33 27 -152 121 -265 211 -165 131 -512 407 -990 788 -25 20 -54 43 -65 53 -48 39 -266 215 -335 268 -113 89 -242 192 -415 330 -504 404 -599 478 -695 543 -170 114 -412 233 -591 291 -145 46 -354 95 -414 97 -59 2 -100 13 -97 27 1 9 -64 12 -268 12 -207 0 -269 -3 -267 -12z" fill="#ffffff"/>
<path d="M1715 11933 c-66 -21 -90 -36 -387 -259 -328 -247 -468 -381 -611 -589 -75 -109 -70 -100 -133 -222 -111 -212 -180 -424 -219 -673 -14 -95 -15 -376 -13 -3035 3 -2294 6 -2945 16 -3000 91 -509 250 -886 526 -1250 82 -108 266 -304 386 -411 223 -199 608 -415 910 -512 91 -30 239 -66 345 -86 259 -47 225 -46 1800 -46 1468 0 1488 0 1553 20 83 26 140 55 195 99 320 259 234 771 -153 913 -108 40 -139 41 -1660 48 -1141 5 -1486 9 -1525 19 -27 7 -77 19 -110 28 -363 92 -670 293 -889 583 -184 243 -284 488 -321 781 -22 182 -23 5580 0 5734 31 213 102 363 252 532 55 62 228 198 472 371 130 93 180 159 225 296 22 67 22 240 0 298 -69 189 -203 318 -379 364 -65 18 -217 16 -280 -3z" fill="#ffffff"/>
</g>
</svg>