<?xml version="1.0" standalone="no"?>
<!DOCTYPE svg PUBLIC "-//W3C//DTD SVG 20010904//EN"
 "http://www.w3.org/TR/2001/REC-SVG-20010904/DTD/svg10.dtd">
<svg version="1.0" xmlns="http://www.w3.org/2000/svg"
 width="1536.000000pt" height="1536.000000pt" viewBox="0 0 1536.000000 1536.000000"
 preserveAspectRatio="xMidYMid meet">
<metadata>
Created by potrace 1.10, written by Peter Selinger 2001-2011
</metadata>
<g transform="translate(0.000000,1536.000000) scale(0.100000,-0.100000)"
fill="#000000" stroke="none">
<path d="M3383 15348 c1 -6 -16 -15 -38 -20 -350 -76 -624 -289 -775 -602 -94
-194 -110 -309 -110 -767 0 -295 -1 -309 -19 -319 -13 -7 -323 -10 -933 -10
-1029 0 -1010 1 -1152 -70 -170 -84 -293 -236 -342 -418 -12 -45 -14 -432 -14
-2556 0 -2749 -5 -2537 58 -2587 104 -81 239 -57 303 54 l24 42 2 1135 c1 666
5 1136 10 1137 5 2 49 -44 98 -102 197 -235 416 -406 700 -545 124 -61 321
-135 412 -154 17 -4 36 -13 42 -19 6 -8 11 -145 13 -347 l3 -335 32 -65 c65
-129 163 -211 295 -244 91 -23 694 -24 781 -1 115 30 207 93 263 181 66 104
67 109 73 449 l6 310 2170 0 2170 0 6 -305 c3 -170 10 -318 16 -335 35 -102
116 -207 190 -248 115 -62 115 -62 513 -62 402 0 419 2 522 62 70 41 124 102
168 190 l35 68 3 337 c3 240 7 340 15 347 7 5 61 23 121 40 381 110 744 344
1009 651 55 63 105 116 113 118 12 3 14 -135 14 -922 0 -641 -3 -927 -11 -931
-11 -8 -39 2 -146 51 -40 18 -100 45 -135 60 -35 14 -101 44 -146 65 -46 22
-86 39 -89 39 -2 0 -30 12 -61 26 -75 34 -186 64 -242 64 -57 0 -173 -31 -236
-63 -27 -13 -60 -28 -74 -32 -14 -4 -62 -25 -108 -46 -46 -22 -85 -39 -88 -39
-4 0 -129 -56 -155 -70 -8 -4 -76 -34 -149 -65 -73 -31 -141 -60 -149 -65 -9
-4 -32 -14 -51 -23 -19 -8 -62 -27 -95 -42 -73 -33 -78 -35 -285 -126 -91 -39
-169 -76 -175 -80 -5 -5 -15 -9 -21 -9 -7 0 -52 -18 -99 -40 -47 -22 -145 -65
-217 -96 -72 -31 -139 -60 -147 -64 -30 -16 -156 -73 -246 -110 -84 -36 -283
-123 -350 -155 -31 -14 -46 -21 -230 -100 -60 -26 -141 -62 -180 -80 -38 -18
-131 -58 -205 -90 -74 -31 -164 -71 -200 -88 -36 -16 -99 -45 -140 -63 -320
-139 -347 -155 -414 -237 -71 -90 -96 -161 -96 -279 0 -103 14 -152 66 -233
56 -88 139 -154 244 -195 19 -7 72 -30 118 -52 46 -21 85 -38 87 -38 3 0 42
-17 87 -39 46 -21 128 -58 183 -81 181 -77 175 -72 175 -134 0 -33 -5 -58 -14
-65 -10 -8 -621 -11 -2387 -9 -2612 4 -2405 -1 -2604 63 -256 82 -493 272
-637 510 -41 67 -118 240 -118 264 0 8 -6 33 -14 56 -24 67 -36 200 -40 410
-3 208 -7 229 -53 281 -29 34 -98 64 -145 64 -57 0 -125 -37 -160 -86 l-28
-39 4 -290 c4 -336 11 -385 81 -588 68 -200 211 -424 369 -579 65 -65 241
-205 276 -221 8 -4 29 -16 45 -27 59 -38 315 -150 344 -150 8 0 37 -6 65 -14
169 -48 42 -46 2586 -46 1499 0 2388 -4 2404 -10 l25 -9 3 -783 c3 -741 4
-786 22 -832 35 -91 81 -163 150 -234 58 -61 177 -154 251 -198 82 -48 88 -51
145 -79 92 -46 90 -41 90 -181 l0 -124 -345 -460 c-375 -500 -378 -506 -356
-596 16 -62 47 -101 103 -130 74 -38 150 -28 219 28 16 14 210 267 266 347 48
70 90 114 102 106 7 -4 11 -66 11 -173 0 -141 3 -173 19 -208 60 -131 215
-163 318 -65 52 49 58 75 61 261 2 96 7 178 11 183 13 13 35 -14 191 -223 160
-215 172 -229 232 -260 117 -62 279 44 278 182 -1 61 -24 98 -222 359 -336
442 -479 636 -484 654 -3 12 -4 39 -2 61 3 36 5 39 33 38 17 -1 62 -11 100
-23 80 -24 104 -30 274 -65 181 -38 413 -74 636 -101 397 -46 462 -49 1045
-49 586 0 607 1 1045 50 240 27 623 90 760 125 22 6 67 17 100 25 33 9 80 21
105 28 25 8 72 21 105 31 33 10 75 24 93 31 18 8 39 14 46 14 16 0 240 91 306
124 278 139 437 274 539 456 7 14 22 56 32 94 18 66 19 125 19 1098 l0 1028
38 19 c20 10 97 44 171 76 135 57 149 64 186 82 11 5 81 36 155 68 178 77 216
98 274 154 100 95 136 182 136 323 0 97 -2 106 -49 208 -9 19 -44 63 -78 98
-65 66 -124 98 -381 206 -35 15 -98 43 -140 63 -97 46 -171 54 -228 25 -125
-64 -152 -217 -54 -320 25 -26 78 -54 214 -112 54 -23 106 -45 115 -50 9 -4
36 -17 61 -28 25 -11 66 -30 92 -42 83 -38 75 -68 -31 -117 -42 -19 -83 -39
-92 -43 -8 -4 -74 -33 -145 -63 -72 -31 -159 -69 -195 -86 -95 -44 -256 -115
-419 -185 -80 -35 -174 -77 -210 -93 -36 -17 -141 -63 -235 -103 -93 -40 -174
-76 -180 -79 -5 -4 -35 -18 -65 -31 -30 -12 -82 -35 -115 -50 -33 -15 -109
-49 -170 -75 -104 -45 -183 -79 -250 -110 -87 -39 -147 -66 -215 -95 -99 -42
-152 -66 -227 -101 -35 -16 -65 -29 -67 -29 -3 0 -37 -15 -78 -34 -40 -18
-122 -55 -183 -81 -142 -61 -216 -94 -236 -105 -8 -4 -89 -40 -180 -78 -90
-39 -188 -82 -216 -96 -29 -15 -59 -26 -65 -26 -7 0 -22 -7 -32 -15 -25 -19
-80 -19 -114 -1 -34 18 -108 51 -242 109 -58 24 -140 61 -183 81 -43 20 -80
36 -83 36 -2 0 -32 13 -67 29 -82 39 -131 60 -262 116 -106 46 -153 66 -267
119 -29 13 -114 50 -188 81 -74 32 -139 61 -145 64 -5 4 -35 18 -65 30 -126
53 -230 105 -230 116 0 6 33 26 73 45 39 18 115 53 167 77 146 68 167 78 290
133 63 29 151 69 195 90 44 21 132 62 195 90 63 29 156 71 205 95 173 82 155
80 242 39 120 -57 285 -94 413 -94 75 1 230 23 308 44 68 19 204 86 264 131
60 44 141 142 168 201 124 282 -84 590 -462 683 -221 54 -484 38 -666 -41 -85
-37 -210 -127 -258 -186 -77 -94 -97 -149 -102 -276 l-4 -108 -77 -35 c-42
-19 -96 -44 -121 -55 -69 -31 -165 -76 -280 -130 -58 -27 -132 -61 -165 -75
-33 -14 -105 -47 -160 -73 -134 -64 -255 -120 -259 -120 -2 0 -55 -24 -117
-54 -306 -143 -342 -159 -369 -158 -28 1 -93 28 -313 131 -49 22 -91 41 -93
41 -6 0 -110 45 -211 91 -34 16 -91 40 -125 55 -35 14 -97 42 -138 61 -41 19
-133 59 -204 90 -71 30 -137 59 -145 63 -9 5 -50 24 -92 44 -42 19 -79 42 -83
52 -6 17 27 64 46 64 5 0 36 13 71 29 80 38 146 67 282 126 61 26 143 63 183
81 41 19 75 34 77 34 2 0 36 15 77 34 40 18 123 55 183 81 61 26 135 59 165
72 30 14 71 32 90 40 19 9 42 19 51 23 8 5 92 40 185 80 93 40 174 76 179 79
6 4 35 18 65 31 30 12 73 31 95 40 22 10 119 53 215 95 233 102 262 115 281
125 8 4 76 34 150 65 74 32 161 70 194 85 99 46 336 150 341 150 3 0 38 16 79
35 41 19 102 46 137 61 35 14 97 42 138 61 41 19 133 59 205 90 71 30 135 58
140 62 6 4 27 13 47 19 43 15 85 5 184 -45 11 -6 97 -43 190 -83 93 -40 201
-87 239 -105 39 -18 120 -54 180 -80 61 -26 143 -63 183 -81 41 -19 75 -34 78
-34 2 0 34 -14 71 -31 85 -39 99 -45 258 -114 72 -31 148 -64 170 -75 124 -56
160 -72 260 -115 61 -26 137 -60 170 -75 33 -15 89 -40 123 -54 35 -15 95 -42
135 -60 40 -19 128 -58 197 -87 112 -48 133 -54 195 -54 62 0 74 3 109 30 43
33 86 113 86 160 0 41 -33 109 -67 141 -24 23 -76 50 -213 111 -19 8 -42 19
-51 23 -8 4 -76 34 -149 65 -73 31 -141 61 -149 65 -9 4 -34 16 -56 25 -22 10
-47 21 -56 25 -8 5 -76 34 -149 65 -73 31 -141 61 -149 66 -22 11 -151 69
-156 69 -2 0 -41 18 -87 39 -46 21 -117 53 -158 70 -41 18 -85 39 -97 47 l-23
14 0 2361 c0 2145 -1 2367 -16 2432 -49 217 -207 400 -409 474 -115 42 -129
43 -1095 43 -707 0 -929 3 -938 12 -9 9 -12 101 -12 352 0 347 -7 433 -44 561
-69 234 -208 434 -404 582 -113 85 -302 168 -430 188 -24 4 -46 13 -49 21 -8
21 -993 21 -993 0 0 -8 -8 -17 -18 -20 -37 -12 -82 -68 -98 -122 -12 -44 -13
-60 -3 -96 15 -54 49 -100 91 -126 32 -20 53 -21 483 -25 505 -5 528 -8 670
-77 175 -85 301 -230 367 -422 21 -59 22 -84 26 -433 3 -344 2 -370 -14 -382
-24 -18 -275 -18 -292 -1 -9 9 -12 95 -12 322 -1 393 -9 435 -100 539 -48 54
-105 89 -181 111 -50 15 -225 16 -1844 14 l-1790 -3 -60 -24 c-66 -27 -158
-110 -189 -171 -42 -81 -46 -122 -46 -456 0 -235 -3 -323 -12 -332 -19 -19
-282 -17 -298 3 -9 11 -11 101 -8 382 5 362 5 369 30 438 73 202 190 334 374
421 151 71 105 68 1242 72 l1024 3 39 24 c61 39 89 92 89 168 0 56 -4 70 -31
106 -17 24 -44 50 -60 59 -16 10 -29 23 -29 30 0 9 -223 12 -1080 12 -818 0
-1079 -3 -1077 -12z m3601 -1134 c3 -9 6 -139 6 -289 0 -261 -1 -275 -19 -285
-13 -7 -556 -10 -1686 -10 -1130 0 -1673 3 -1686 10 -18 10 -19 24 -19 285 0
150 3 280 6 289 6 15 165 16 1699 16 1534 0 1693 -1 1699 -16z m3069 -1018
c53 -31 97 -90 115 -152 9 -30 12 -237 12 -770 0 -738 -4 -835 -40 -1004 -108
-507 -465 -962 -935 -1191 -108 -52 -235 -99 -271 -99 l-22 0 -4 283 -3 282
-38 75 c-39 80 -69 117 -132 165 -108 81 -134 85 -556 85 -373 0 -396 -3 -486
-49 -86 -43 -167 -134 -205 -228 -21 -55 -23 -74 -28 -373 l-5 -315 -2170 0
-2170 0 -5 315 c-5 259 -8 322 -22 355 -59 146 -156 238 -295 280 -75 23 -742
22 -821 -1 -115 -34 -217 -121 -274 -234 l-32 -65 -6 -285 c-6 -335 8 -312
-146 -254 -502 186 -897 612 -1052 1134 -34 111 -43 152 -52 238 -6 46 -12 87
-15 92 -3 4 -5 352 -5 772 -1 805 -1 796 45 866 28 42 97 93 138 102 18 5
2147 7 4732 6 l4700 -1 48 -29z m-7354 -2740 c8 -9 11 -92 9 -282 l-3 -269
-320 0 -320 0 -3 269 c-2 190 1 273 9 282 9 11 70 14 314 14 244 0 305 -3 314
-14z m5799 6 c9 -7 12 -70 10 -283 l-3 -274 -320 0 -320 0 -3 269 c-2 190 1
273 9 282 9 11 69 14 313 14 165 0 307 -4 314 -8z m-5790 -1226 c2 -230 0
-261 -14 -278 -16 -17 -38 -18 -306 -18 -180 0 -297 4 -309 10 -18 10 -19 24
-19 274 0 144 3 266 7 269 4 4 149 6 322 5 l316 -3 3 -259z m5800 -5 c2 -186
-1 -268 -9 -277 -9 -11 -69 -14 -307 -14 -261 0 -298 2 -314 17 -17 15 -18 37
-18 273 0 141 3 260 7 263 4 4 149 6 322 5 l316 -3 3 -264z m952 -2186 c87
-10 186 -52 233 -100 27 -27 21 -61 -16 -89 -163 -124 -489 -124 -652 0 -43
32 -45 61 -7 97 62 59 245 112 352 101 19 -2 60 -6 90 -9z m-2782 -1219 c15
-8 62 -31 105 -50 l77 -36 0 -974 c0 -620 -4 -977 -10 -981 -23 -14 -166 94
-215 163 l-30 44 -3 911 c-1 502 0 917 3 924 6 17 41 16 73 -1z m5420 -900 c2
-904 2 -910 -19 -953 -61 -127 -286 -257 -679 -392 -88 -31 -327 -90 -475
-119 -304 -59 -417 -75 -875 -123 -165 -18 -1088 -24 -1260 -9 -74 7 -184 16
-245 20 -107 8 -206 20 -350 41 -38 6 -99 15 -135 20 -36 5 -99 15 -140 23
-41 8 -113 22 -160 30 -71 14 -193 44 -390 96 -19 5 -52 16 -73 25 l-37 15 0
975 c0 609 4 976 10 980 5 3 58 -16 117 -44 59 -27 153 -68 207 -91 54 -23
106 -45 115 -50 9 -4 34 -16 56 -25 22 -10 47 -21 56 -26 9 -4 59 -25 111 -48
52 -22 134 -58 182 -81 48 -22 89 -40 92 -40 2 0 34 -14 71 -31 109 -50 142
-65 258 -114 133 -57 215 -93 236 -105 8 -4 91 -40 184 -80 93 -40 176 -76
184 -80 63 -33 112 -42 216 -42 106 0 127 4 210 42 11 5 67 29 125 54 106 45
301 131 375 166 22 10 90 40 150 65 133 57 215 93 236 105 8 4 91 40 184 80
93 40 176 76 184 80 26 14 151 70 155 70 3 0 44 18 91 40 47 22 145 65 217 96
72 31 140 60 150 65 10 5 26 13 36 18 10 5 95 41 188 81 93 40 174 75 179 79
36 23 224 99 240 98 20 -2 20 -10 23 -911z"/>
</g>
</svg>
