<?xml version="1.0" standalone="no"?>
<!DOCTYPE svg PUBLIC "-//W3C//DTD SVG 20010904//EN"
 "http://www.w3.org/TR/2001/REC-SVG-20010904/DTD/svg10.dtd">
<svg version="1.0" xmlns="http://www.w3.org/2000/svg"
 width="1536.000000pt" height="1536.000000pt" viewBox="0 0 1536.000000 1536.000000"
 preserveAspectRatio="xMidYMid meet">
<metadata>
Created by potrace 1.10, written by Peter Selinger 2001-2011
</metadata>
<g transform="translate(0.000000,1536.000000) scale(0.100000,-0.100000)"
fill="#000000" stroke="none">
<path d="M6690 13973 c-21 -3 -345 -107 -445 -143 -61 -21 -184 -62 -345 -115
-91 -30 -192 -63 -225 -75 -33 -12 -73 -25 -90 -30 -31 -9 -76 -24 -135 -46
-19 -7 -125 -42 -235 -78 -220 -72 -254 -83 -305 -102 -19 -7 -165 -55 -325
-108 -159 -52 -303 -100 -320 -106 -55 -20 -630 -211 -660 -220 -31 -9 -74
-23 -135 -46 -45 -16 -455 -152 -495 -164 -31 -9 -75 -24 -135 -46 -45 -16
-455 -152 -495 -164 -32 -9 -76 -24 -135 -46 -19 -7 -125 -42 -235 -78 -257
-84 -264 -86 -303 -102 -18 -8 -41 -14 -52 -14 -27 0 -88 -29 -135 -65 -50
-37 -59 -48 -93 -110 l-27 -50 0 -2190 0 -2190 33 -68 c67 -136 223 -206 366
-165 68 19 152 85 184 143 50 92 47 -40 49 2010 2 1050 7 1913 11 1917 4 4 55
-8 112 -28 58 -19 119 -39 135 -44 32 -9 77 -24 135 -46 19 -7 121 -41 225
-74 105 -34 206 -67 225 -74 61 -23 104 -37 135 -46 40 -12 450 -148 495 -164
59 -22 104 -37 135 -46 132 -39 406 -137 410 -148 4 -12 -16 -52 -67 -130 -10
-15 -21 -34 -25 -42 -4 -8 -26 -48 -50 -88 -24 -40 -43 -74 -43 -77 0 -2 -21
-48 -46 -102 -55 -119 -67 -145 -89 -203 -9 -25 -22 -56 -27 -70 -72 -179
-143 -492 -183 -803 -54 -425 28 -1040 195 -1467 12 -30 25 -64 29 -75 25 -69
131 -287 188 -390 189 -335 485 -683 788 -926 142 -113 334 -245 427 -292 44
-22 65 -45 52 -56 -5 -4 -52 -23 -104 -40 -85 -29 -212 -79 -295 -117 -53 -23
-420 -203 -435 -213 -8 -6 -73 -44 -143 -86 -330 -196 -631 -428 -910 -702
-264 -260 -458 -491 -645 -769 -85 -125 -95 -153 -95 -249 0 -93 19 -139 85
-211 59 -65 129 -94 222 -94 143 0 202 41 331 226 266 385 579 713 945 991
232 176 439 304 700 433 69 33 133 66 143 71 47 25 452 177 532 198 17 5 66
19 110 31 133 38 337 79 515 104 508 72 919 62 1450 -35 172 -31 439 -101 550
-144 19 -8 98 -37 174 -65 413 -152 859 -413 1226 -719 190 -157 465 -440 600
-615 25 -32 57 -73 71 -90 14 -17 66 -89 114 -160 129 -185 188 -226 330 -226
123 0 218 58 279 171 25 45 29 63 29 133 0 97 -10 125 -95 250 -402 596 -949
1113 -1556 1471 -70 42 -134 80 -142 85 -29 19 -346 176 -410 203 -36 15 -74
33 -84 39 -11 6 -31 14 -45 18 -14 5 -51 18 -81 30 -30 12 -86 32 -125 46 -38
13 -76 26 -83 29 -21 8 1 37 45 60 21 11 56 32 78 46 22 14 80 52 129 84 142
93 330 248 476 395 237 236 423 488 585 793 49 94 146 307 165 367 5 14 18 50
29 80 41 108 105 361 135 535 36 215 48 379 43 597 -4 204 -8 250 -44 473 -28
179 -101 462 -151 585 -5 14 -18 45 -27 70 -22 58 -34 84 -89 203 -25 54 -46
100 -46 102 0 3 -19 37 -43 77 -24 40 -46 80 -50 88 -4 8 -15 27 -25 41 -65
98 -75 120 -61 134 8 8 367 131 799 274 432 143 799 265 815 271 17 6 204 69
417 140 212 71 408 139 435 152 62 29 125 93 153 154 31 69 31 189 0 258 -43
94 -116 148 -273 201 -40 13 -85 29 -102 35 -16 6 -158 53 -315 105 -157 51
-298 99 -315 105 -16 6 -462 154 -990 330 -528 175 -973 324 -990 330 -16 6
-536 179 -1155 384 -1087 361 -1190 392 -1260 379z m602 -828 c288 -96 537
-179 553 -185 54 -19 1979 -661 2010 -670 31 -9 75 -24 135 -46 19 -7 145 -49
280 -93 135 -44 259 -84 275 -90 17 -6 72 -26 124 -43 51 -18 93 -37 93 -43 0
-5 -42 -25 -93 -43 -52 -17 -107 -37 -124 -43 -16 -6 -140 -46 -275 -90 -135
-44 -261 -86 -280 -93 -60 -23 -104 -37 -135 -46 -16 -5 -237 -78 -490 -163
-253 -85 -500 -167 -550 -183 -49 -17 -530 -177 -1068 -357 -537 -180 -989
-327 -1002 -327 -24 0 -260 74 -465 145 -65 23 -104 36 -305 101 -110 36 -216
71 -235 78 -60 23 -104 37 -135 46 -16 5 -75 24 -130 43 -127 44 -460 155
-500 167 -30 8 -71 22 -135 46 -101 37 -187 66 -295 99 -66 20 -136 42 -155
49 -63 23 -104 38 -135 46 -43 13 -454 149 -495 164 -62 23 -104 38 -135 46
-31 8 -73 23 -135 46 -37 14 -444 148 -495 164 -69 21 -236 80 -256 90 -15 8
-18 15 -11 22 9 9 184 74 267 98 47 14 456 150 495 164 62 23 104 38 135 46
31 8 73 23 135 46 41 15 452 151 495 164 32 9 79 25 135 46 19 7 125 42 235
78 190 62 224 73 305 101 66 23 105 36 275 91 94 31 215 72 270 91 55 19 114
38 130 43 31 8 73 23 135 46 19 7 121 40 225 74 105 33 206 67 225 74 56 21
103 37 135 46 17 5 109 36 205 69 96 32 190 60 207 60 18 1 268 -78 555 -174z
m-2512 -2536 c52 -17 111 -37 130 -44 56 -20 94 -32 305 -101 110 -36 216 -71
235 -78 59 -22 103 -37 135 -46 40 -12 450 -148 495 -164 59 -22 104 -37 135
-46 17 -5 125 -41 240 -80 314 -107 196 -127 1175 199 448 149 829 275 845
281 193 69 327 110 339 103 21 -12 104 -125 168 -228 50 -82 122 -219 176
-335 54 -116 142 -397 162 -515 4 -27 13 -75 19 -105 42 -219 49 -462 22 -690
-31 -250 -46 -322 -108 -525 -185 -608 -617 -1155 -1168 -1480 -97 -57 -276
-147 -335 -170 -191 -71 -386 -130 -480 -145 -25 -4 -72 -12 -105 -18 -184
-34 -422 -48 -575 -33 -281 28 -321 34 -490 78 -483 124 -874 346 -1220 693
-217 217 -363 420 -494 683 -106 214 -154 346 -211 577 -60 245 -88 581 -65
780 4 41 11 104 14 140 18 186 132 604 201 740 7 14 37 72 66 130 100 200 254
430 288 430 3 0 48 -14 101 -31z"/>
</g>
</svg>
