<svg xmlns="http://www.w3.org/2000/svg" version="1.0" width="1536.000000pt" height="1536.000000pt" viewBox="0 0 1536.000000 1536.000000" preserveAspectRatio="xMidYMid meet">
<metadata fill="#ffffff">
Created by potrace 1.10, written by Peter Selinger 2001-2011
</metadata>
<g transform="translate(0.000000,1536.000000) scale(0.100000,-0.100000)" fill="#ffffff" stroke="none">
<path d="M6170 14494 c-562 -62 -1007 -226 -1471 -540 -58 -39 -117 -80 -130 -92 -13 -11 -58 -48 -99 -82 -317 -261 -609 -636 -798 -1022 -64 -131 -122 -282 -186 -488 -8 -25 -22 -76 -31 -115 -9 -38 -20 -86 -25 -105 -67 -264 -80 -805 -29 -1120 89 -543 321 -1058 667 -1478 141 -172 275 -304 487 -477 59 -49 254 -182 321 -221 86 -48 288 -154 295 -154 4 0 29 -11 56 -24 26 -14 68 -32 93 -41 92 -34 344 -115 358 -115 9 0 38 -6 66 -14 65 -19 173 -41 306 -63 83 -14 167 -17 405 -17 306 0 403 8 582 50 34 7 73 14 86 14 13 0 43 6 68 14 24 8 71 21 104 31 178 49 347 114 520 200 217 107 301 158 496 303 207 154 333 275 566 545 47 55 170 233 237 345 407 677 533 1467 361 2272 -34 161 -104 376 -171 525 -33 76 -147 303 -164 330 -11 17 -23 37 -27 45 -16 35 -102 162 -172 255 -285 380 -645 688 -1044 895 -124 65 -271 132 -327 150 -14 5 -50 18 -80 29 -68 26 -269 83 -370 104 -347 74 -655 93 -950 61z m520 -845 c307 -28 667 -147 924 -306 623 -384 1010 -997 1081 -1713 18 -175 18 -237 5 -400 -25 -291 -98 -554 -227 -815 -19 -38 -38 -77 -43 -85 -5 -8 -30 -51 -56 -95 -150 -254 -412 -524 -679 -701 -104 -68 -109 -71 -235 -134 -137 -68 -409 -170 -454 -170 -10 0 -38 -6 -64 -14 -178 -53 -629 -66 -842 -26 -125 24 -206 43 -230 52 -14 6 -41 14 -60 18 -68 15 -309 113 -399 163 -31 16 -65 35 -76 41 -221 122 -506 375 -678 603 -42 56 -77 104 -77 107 0 3 -14 26 -31 51 -34 51 -135 245 -163 315 -10 25 -24 59 -31 75 -43 104 -85 260 -116 434 -32 181 -33 537 -1 724 50 292 145 552 288 789 191 316 457 586 758 768 294 178 617 287 946 319 194 19 253 19 460 0z" fill="#ffffff"/>
<path d="M10080 7886 c-137 -38 -245 -143 -293 -281 -31 -91 -13 -273 32 -318 6 -6 11 -17 11 -24 0 -7 26 -39 59 -72 86 -86 153 -114 326 -136 77 -10 194 -31 260 -47 114 -27 333 -107 365 -132 8 -7 35 -22 60 -34 118 -60 282 -184 402 -305 217 -219 367 -482 454 -797 70 -253 72 -612 4 -860 -41 -154 -74 -235 -89 -226 -5 3 -11 27 -15 53 -14 108 -116 252 -212 301 -54 27 -152 52 -206 52 -98 0 -218 -53 -295 -129 -55 -55 -73 -84 -104 -171 -18 -51 -19 -87 -19 -686 0 -593 1 -634 19 -686 36 -105 104 -187 199 -241 100 -56 96 -56 762 -56 642 -1 653 0 752 43 62 27 154 121 191 195 31 63 32 71 32 186 0 113 -2 123 -29 175 -40 77 -69 112 -129 158 -68 53 -157 82 -247 82 -82 0 -95 13 -65 64 89 152 187 375 233 536 91 311 112 461 112 773 0 326 -25 487 -125 807 -48 152 -60 182 -122 310 -82 167 -183 334 -268 444 -262 338 -573 596 -925 768 -80 38 -153 74 -162 79 -49 25 -229 84 -344 113 -129 32 -194 44 -339 61 -143 18 -224 18 -285 1z" fill="#ffffff"/>
<path d="M5890 7820 c-386 -18 -827 -67 -1220 -136 -120 -21 -566 -111 -620 -125 -25 -6 -67 -17 -95 -24 -109 -28 -182 -48 -220 -60 -22 -7 -67 -20 -100 -30 -100 -28 -347 -105 -390 -122 -22 -8 -56 -21 -75 -28 -45 -16 -116 -44 -155 -60 -16 -7 -73 -29 -125 -50 -111 -43 -150 -61 -365 -166 -842 -412 -1418 -947 -1680 -1559 -130 -303 -155 -485 -155 -1130 0 -399 9 -551 40 -661 101 -368 411 -637 790 -689 128 -17 5300 -10 5351 8 20 7 63 30 97 51 245 159 257 508 24 684 -31 23 -75 51 -97 62 -39 20 -74 20 -2655 25 -2852 5 -2657 1 -2687 60 -11 20 -13 130 -10 530 l3 505 27 95 c94 321 321 607 707 891 118 87 151 109 305 202 129 78 411 227 429 227 3 0 49 20 102 45 52 25 99 45 104 45 4 0 39 14 77 31 37 17 93 39 123 49 30 11 107 37 170 58 140 48 283 93 370 117 36 9 85 23 110 30 25 7 65 18 90 24 166 39 263 61 320 72 36 6 88 18 117 25 28 8 62 14 75 14 12 0 55 6 93 14 122 26 315 54 580 86 211 25 462 41 795 50 435 13 466 18 570 97 164 124 215 343 123 528 -32 64 -128 155 -201 192 l-57 28 -265 1 c-146 1 -335 -2 -420 -6z" fill="#ffffff"/>
<path d="M7795 7701 c-122 -18 -251 -113 -305 -227 -54 -113 -56 -259 -3 -370 30 -64 116 -155 175 -185 63 -32 166 -59 225 -59 60 0 73 -13 45 -43 -34 -39 -128 -189 -185 -297 -181 -341 -275 -681 -296 -1063 -19 -359 28 -708 138 -1017 183 -517 515 -954 976 -1281 116 -83 330 -200 470 -258 44 -18 89 -37 100 -42 125 -54 425 -125 625 -149 333 -40 440 -21 574 101 43 40 72 77 96 125 32 66 34 74 34 179 0 104 -2 113 -33 176 -43 88 -119 164 -201 202 -53 26 -83 32 -175 39 -311 24 -423 46 -644 128 -326 120 -642 377 -835 679 -80 125 -80 125 -116 201 -64 131 -102 249 -142 434 -18 87 -21 133 -21 326 0 193 3 239 21 326 42 195 79 307 152 454 45 93 75 135 88 126 5 -3 11 -39 14 -79 6 -98 47 -185 120 -258 227 -227 596 -133 702 177 14 42 16 121 16 679 0 575 -2 635 -18 680 -47 135 -131 224 -262 280 -42 18 -80 19 -665 21 -341 1 -642 -1 -670 -5z" fill="#ffffff"/>
</g>
</svg>